<svg id="Group_115" data-name="Group 115" xmlns="http://www.w3.org/2000/svg" xmlns:xlink="http://www.w3.org/1999/xlink" width="517.962" height="54.85" viewBox="0 0 517.962 54.85">
  <defs>
    <clipPath id="clip-path">
      <rect id="Rectangle_404" data-name="Rectangle 404" width="517.962" height="54.85" transform="translate(0 0)" fill="none"/>
    </clipPath>
  </defs>
  <g id="Group_114" data-name="Group 114" clip-path="url(#clip-path)">
    <path id="Path_4697" data-name="Path 4697" d="M95.036,53.775h7.873A3.166,3.166,0,0,1,102,51.564V18.224l0-.039a3.319,3.319,0,0,1,1.056-2.25H95.6L84.679,45.62l-11-29.685H66.244a3.268,3.268,0,0,1,1.026,2.488V51.366a3.3,3.3,0,0,1-.892,2.409h2.8a3.261,3.261,0,0,1-.916-2.409V17.587L81.227,53.671a2.4,2.4,0,0,0,1.264,1.179l13.415-36.6V51.446a3.194,3.194,0,0,1-.87,2.329" transform="translate(0 0.064)" fill="#b47d4c"/>
    <path id="Path_4698" data-name="Path 4698" d="M47.886,54.85h7.883a3.5,3.5,0,0,1-.933-2.256l0-.073v-33.3l0-.037a3.381,3.381,0,0,1,.909-2.174H47.908a3.161,3.161,0,0,1,.832,2.249V52.521a3.279,3.279,0,0,1-.854,2.329" transform="translate(0 -0.01)" fill="#b47d4c"/>
    <path id="Path_4699" data-name="Path 4699" d="M3.682,54.85a2.279,2.279,0,0,1-.233-.3,2.742,2.742,0,0,1-.156-2.532L6.73,42.567H29.3l3.543,9.866a2.559,2.559,0,0,1-.339,2.2,1.887,1.887,0,0,1-.177.216H41.2a5.123,5.123,0,0,1-1.613-1.657l-.046-.079-.03-.085L21.583,3.476a2.568,2.568,0,0,0-1.562-1.205l-1.4,4.005L1.926,52.462v.1l-.077.186A4.7,4.7,0,0,1,0,54.85ZM17.974,11.737,28.847,41.5H7.1Z" transform="translate(0 -0.271)" fill="#b47d4c"/>
    <path id="Path_4700" data-name="Path 4700" d="M184.935,54.85h.239c11.973,0,18.84-7.129,18.84-19.557,0-14.421-9.856-19.559-19.079-19.559-9.108,0-18.841,5.138-18.841,19.559,0,12.428,6.867,19.557,18.841,19.557m-9.029-33.324a11.211,11.211,0,0,1,18.286,0c2.387,3.235,3.649,8,3.649,13.769,0,6.072-1.23,10.777-3.657,13.986a11.517,11.517,0,0,1-18.271,0c-2.419-3.214-3.645-7.919-3.645-13.984,0-5.766,1.258-10.526,3.638-13.767" transform="translate(0 0.266)" fill="#b47d4c"/>
    <path id="Path_4701" data-name="Path 4701" d="M227.317,15.609H208.9a3.307,3.307,0,0,1,.854,2.213V51.157a3.274,3.274,0,0,1-.932,2.292h8a3.407,3.407,0,0,1-.969-2.256l0-.072V16.677h6.366a10.195,10.195,0,0,1,.08,20.389h-1.277a2.011,2.011,0,0,0-1.868,1.148h5.21l4.886,13.142a3.221,3.221,0,0,0,3.019,2.093h4.785a4.527,4.527,0,0,1-1.742-2.022l-.016-.042L230.4,37.758l.937-.355a11.27,11.27,0,0,0-4.024-21.794" transform="translate(0 1.391)" fill="#b47d4c"/>
    <path id="Path_4702" data-name="Path 4702" d="M162.469,24.422V21.039a3.808,3.808,0,0,1-2.367,1.183l-.122.007H143.485V1.841l23.482.008a3.665,3.665,0,0,1,1.778.71L168.393.773H136.3a3.157,3.157,0,0,1,.927,2.21V51.318a3.088,3.088,0,0,1-.864,2.13h7.988a3.188,3.188,0,0,1-.87-2.328V23.3l16.577,0a3.665,3.665,0,0,1,2.407,1.121" transform="translate(0 1.227)" fill="#b47d4c"/>
    <path id="Path_4703" data-name="Path 4703" d="M320.292,53.235c9.91,0,13.511-7.018,13.576-13.586v-22.2a3.093,3.093,0,0,1,.863-2.13h-2.746a3.148,3.148,0,0,1,.893,2.329V39.58c0,6.488-3.186,9.617-5.863,11.1a9.223,9.223,0,0,1-9.309-.044,9.771,9.771,0,0,1-4.9-8.422V17.644a3.059,3.059,0,0,1,.929-2.329H305.6a3.168,3.168,0,0,1,.953,2.408V39.58c0,6.6,3.608,13.655,13.735,13.655" transform="translate(0 1.686)" fill="#b47d4c"/>
    <path id="Path_4704" data-name="Path 4704" d="M359.921,53.235H360a29.332,29.332,0,0,0,11.164-1.983L370.06,48.2c-1.4,1.675-4.389,4.046-10.059,4.046h-.08a10.907,10.907,0,0,1-9.259-4.759c-2.262-3.2-3.408-7.792-3.408-13.651,0-5.694,1.254-10.419,3.627-13.665a11.029,11.029,0,0,1,9.04-4.746H360c5.536,0,8.541,2.279,10.049,4.074l1.119-3.09A28.475,28.475,0,0,0,360,14.358h-.08c-9.069,0-18.761,5.117-18.761,19.479,0,12.328,6.838,19.4,18.761,19.4" transform="translate(0 1.643)" fill="#b47d4c"/>
    <path id="Path_4705" data-name="Path 4705" d="M395.725,53.285h.079A29.312,29.312,0,0,0,406.969,51.3l-1.1-3.051c-1.4,1.676-4.39,4.046-10.06,4.046h-.079a10.91,10.91,0,0,1-9.26-4.759c-2.261-3.2-3.407-7.792-3.407-13.651,0-5.694,1.254-10.418,3.627-13.664a11.026,11.026,0,0,1,9.04-4.746h.079c5.536,0,8.542,2.278,10.05,4.073l1.119-3.089A28.457,28.457,0,0,0,395.8,14.407h-.079c-9.069,0-18.761,5.117-18.761,19.479,0,12.328,6.838,19.4,18.761,19.4" transform="translate(1 1.594)" fill="#b47d4c"/>
    <path id="Path_4706" data-name="Path 4706" d="M486.356,43.119a11.284,11.284,0,0,0-5.289-9.569l-11.7-7.884V25.59a5.6,5.6,0,0,1-2.155-4.471,5.381,5.381,0,0,1,5.072-5.229c4.72-.572,8.407,1.558,10.984,6.335l.051-4.715-.339-.185a18.128,18.128,0,0,0-8.727-2.35c-3.658-.143-6.681.8-8.745,2.719a8.294,8.294,0,0,0-2.634,5.864l0,.038a9.046,9.046,0,0,0,3.88,7.873l11.819,7.987a6.916,6.916,0,0,1,2.889,5.867,7.125,7.125,0,0,1-2.2,4.863,9.149,9.149,0,0,1-6.9,2.36h-.026A12.4,12.4,0,0,1,461.85,44.8l-.657,4.6a16.409,16.409,0,0,0,11.267,3.815h.036a18.214,18.214,0,0,0,5.687-.5l.069-.025.074-.014a9.959,9.959,0,0,0,8.03-9.558" transform="translate(-13 2.039)" fill="#b47d4c"/>
    <path id="Path_4707" data-name="Path 4707" d="M517.955,43.119a11.284,11.284,0,0,0-5.289-9.569l-11.7-7.884V25.59a5.6,5.6,0,0,1-2.155-4.471,5.38,5.38,0,0,1,5.072-5.229c4.72-.572,8.407,1.558,10.984,6.335l.051-4.715-.339-.185a18.128,18.128,0,0,0-8.727-2.35c-3.658-.143-6.682.8-8.745,2.719a8.294,8.294,0,0,0-2.634,5.864l0,.038a9.046,9.046,0,0,0,3.88,7.873l11.819,7.987a6.918,6.918,0,0,1,2.889,5.867,7.125,7.125,0,0,1-2.2,4.863,9.151,9.151,0,0,1-6.9,2.36h-.026A12.4,12.4,0,0,1,493.449,44.8l-.657,4.6a16.409,16.409,0,0,0,11.267,3.815h.036a18.218,18.218,0,0,0,5.687-.5l.069-.025.074-.014a9.96,9.96,0,0,0,8.03-9.558" transform="translate(-13 2.039)" fill="#b47d4c"/>
    <path id="Path_4708" data-name="Path 4708" d="M452.385,52.156l-.074.011H434.622V31.778l10,.008a3.75,3.75,0,0,1,2.363,1.223V29.515a3.549,3.549,0,0,1-2.4,1.192l-.085,0h-9.876V16.464l16.658,0a3.707,3.707,0,0,1,1.858.65l-.371-1.722H427.6a3.278,3.278,0,0,1,.932,2.292V51.024a3.17,3.17,0,0,1-.909,2.211h26.342l.8-2.515a4.2,4.2,0,0,1-2.379,1.436" transform="translate(-13 1.605)" fill="#b47d4c"/>
    <path id="Path_4709" data-name="Path 4709" d="M283.208,53.235a22.152,22.152,0,0,0,6.938-.985c5.4-1.828,9.026-7.3,9.031-13.616a14.972,14.972,0,0,0-2.682-8.751l-.024-.035a17.427,17.427,0,0,0-4.825-4.9c-1.742-1.18-3.507-2.384-6.431-4.38l-6.092-4.156c-3.677-2.507-5.379-6.387-4.337-9.885.994-3.337,4.183-5.46,8.322-5.54h.02a11.041,11.041,0,0,1,9.532,6.077l.049-4.5A16.9,16.9,0,0,0,283.128,0C275.6,0,270.35,4.467,270.35,10.864c0,6.973,3.578,9.516,6.19,11.371,2.752,1.911,7.294,5.021,10.744,7.321a12.27,12.27,0,0,1,5.8,10.661c0,6.633-4.932,12.03-10.992,12.03a10.982,10.982,0,0,1-8.525-3.636l-.043-.043a19.011,19.011,0,0,1-4.369-8.931l-.992,6.5c3.447,5.234,10.22,7.1,15.046,7.1" transform="translate(0 2)" fill="#b47d4c"/>
  </g>
</svg>
