<svg xmlns="http://www.w3.org/2000/svg"  width="467" height="54"   viewBox="0 0 467.96 54.85"><defs><style>.cls-1{fill:#bf9160;}</style></defs><g id="圖層_2" data-name="圖層 2"><g id="圖層_1-2" data-name="圖層 1"><path class="cls-1" d="M95,53.77h7.87a3.12,3.12,0,0,1-.91-2.21V18.19a3.34,3.34,0,0,1,1.06-2.26H95.6L84.68,45.62l-11-29.69H66.24a3.26,3.26,0,0,1,1,2.49V51.37a3.3,3.3,0,0,1-.89,2.4h2.79a3.27,3.27,0,0,1-.91-2.4V17.59l13,36.08a2.39,2.39,0,0,0,1.26,1.18l13.42-36.6v33.2A3.16,3.16,0,0,1,95,53.77Z"/><path class="cls-1" d="M47.89,54.85h7.88a3.45,3.45,0,0,1-.93-2.26V19.18A3.33,3.33,0,0,1,55.75,17H47.91a3.16,3.16,0,0,1,.83,2.25V52.52A3.28,3.28,0,0,1,47.89,54.85Z"/><path class="cls-1" d="M3.68,54.85a2.37,2.37,0,0,1-.23-.3A2.74,2.74,0,0,1,3.29,52l3.44-9.45H29.3l3.54,9.86a2.5,2.5,0,0,1-.34,2.2,1.84,1.84,0,0,1-.17.22H41.2a5.15,5.15,0,0,1-1.62-1.66l0-.08,0-.08L21.58,3.48A2.53,2.53,0,0,0,20,2.27l-1.4,4L1.93,52.46v.1l-.08.19A4.72,4.72,0,0,1,0,54.85ZM18,11.74,28.85,41.5H7.1Z"/><path class="cls-1" d="M184.93,54.85h.24c12,0,18.84-7.13,18.84-19.56,0-14.42-9.85-19.56-19.08-19.56s-18.84,5.14-18.84,19.56C166.09,47.72,173,54.85,184.93,54.85Zm-9-33.32a11.2,11.2,0,0,1,18.28,0c2.39,3.24,3.65,8,3.65,13.77,0,6.07-1.23,10.78-3.66,14a11.52,11.52,0,0,1-18.27,0c-2.42-3.22-3.64-7.92-3.64-14C172.27,29.53,173.53,24.77,175.91,21.53Z"/><path class="cls-1" d="M227.32,15.61H208.9a3.31,3.31,0,0,1,.85,2.21V51.16a3.23,3.23,0,0,1-.93,2.29h8a3.42,3.42,0,0,1-1-2.26V16.68h6.36a10.2,10.2,0,0,1,.08,20.39H221a2,2,0,0,0-1.87,1.14h5.21l4.88,13.15a3.24,3.24,0,0,0,3,2.09h4.79a4.52,4.52,0,0,1-1.74-2l0,0L230.4,37.76l.94-.36a11.15,11.15,0,0,0,7.24-10.53A11.27,11.27,0,0,0,227.32,15.61Z"/><path class="cls-1" d="M162.47,24.42V21a3.78,3.78,0,0,1-2.37,1.18H143.48V1.84H167a3.72,3.72,0,0,1,1.78.71L168.39.77H136.3A3.13,3.13,0,0,1,137.23,3V51.32a3.1,3.1,0,0,1-.86,2.13h8a3.21,3.21,0,0,1-.88-2.33V23.3h16.58A3.68,3.68,0,0,1,162.47,24.42Z"/><path class="cls-1" d="M320.29,53.23c9.91,0,13.51-7,13.58-13.58V17.45a3.08,3.08,0,0,1,.86-2.14H332a3.17,3.17,0,0,1,.89,2.33V39.58c0,6.49-3.19,9.62-5.86,11.1a9.21,9.21,0,0,1-9.31,0,9.77,9.77,0,0,1-4.9-8.42V17.64a3.08,3.08,0,0,1,.93-2.33H305.6a3.15,3.15,0,0,1,1,2.41V39.58C306.56,46.18,310.16,53.23,320.29,53.23Z"/><path class="cls-1" d="M359.92,53.23H360a29.29,29.29,0,0,0,11.16-2l-1.1-3c-1.4,1.68-4.39,4-10.06,4h-.08a10.91,10.91,0,0,1-9.26-4.76c-2.26-3.2-3.41-7.79-3.41-13.65,0-5.7,1.26-10.42,3.63-13.67a11,11,0,0,1,9-4.74H360c5.54,0,8.54,2.27,10.05,4.07l1.12-3.09A28.41,28.41,0,0,0,360,14.36h-.08c-9.07,0-18.76,5.11-18.76,19.48C341.16,46.16,348,53.23,359.92,53.23Z"/><path class="cls-1" d="M436.36,43.12a11.29,11.29,0,0,0-5.29-9.57l-11.7-7.88v-.08a5.59,5.59,0,0,1-2.16-4.47,5.38,5.38,0,0,1,5.07-5.23c4.72-.57,8.41,1.56,11,6.34l.05-4.72-.34-.19A18.13,18.13,0,0,0,424.25,15c-3.66-.15-6.68.79-8.74,2.71a8.32,8.32,0,0,0-2.64,5.87v0a9,9,0,0,0,3.88,7.87l11.82,8a6.9,6.9,0,0,1,2.89,5.86,7.2,7.2,0,0,1-2.2,4.87,9.2,9.2,0,0,1-6.9,2.36h0a12.38,12.38,0,0,1-10.48-7.74l-.66,4.6a16.42,16.42,0,0,0,11.27,3.82h0a18.29,18.29,0,0,0,5.68-.5l.07,0h.08A10,10,0,0,0,436.36,43.12Z"/><path class="cls-1" d="M468,43.12a11.28,11.28,0,0,0-5.28-9.57L451,25.67v-.08a5.61,5.61,0,0,1-2.15-4.47,5.38,5.38,0,0,1,5.07-5.23c4.72-.57,8.41,1.56,11,6.34l.05-4.72-.34-.19A18.13,18.13,0,0,0,455.85,15c-3.66-.15-6.68.79-8.74,2.71a8.32,8.32,0,0,0-2.64,5.87v0a9,9,0,0,0,3.88,7.87l11.82,8a6.9,6.9,0,0,1,2.89,5.86,7.17,7.17,0,0,1-2.21,4.87,9.16,9.16,0,0,1-6.9,2.36h0a12.36,12.36,0,0,1-10.48-7.74l-.66,4.6a16.41,16.41,0,0,0,11.27,3.82h0a18.33,18.33,0,0,0,5.69-.5l.07,0h.07A10,10,0,0,0,468,43.12Z"/><path class="cls-1" d="M402.39,52.16H384.62V31.78h10A3.71,3.71,0,0,1,397,33V29.52a3.59,3.59,0,0,1-2.41,1.19h-10V16.46h16.66a3.71,3.71,0,0,1,1.86.65l-.37-1.73H377.6a3.35,3.35,0,0,1,.93,2.3V51a3.16,3.16,0,0,1-.91,2.21H404l.8-2.51A4.21,4.21,0,0,1,402.39,52.16Z"/><path class="cls-1" d="M283.21,53.23a22.25,22.25,0,0,0,6.94-1c5.39-1.83,9-7.3,9-13.62a15,15,0,0,0-2.69-8.75l0,0a17.43,17.43,0,0,0-4.82-4.9c-1.75-1.18-3.51-2.38-6.44-4.38l-6.09-4.16c-3.67-2.5-5.38-6.38-4.33-9.88,1-3.34,4.18-5.46,8.32-5.54h0a11,11,0,0,1,9.53,6.08l0-4.51A16.93,16.93,0,0,0,283.13,0c-7.53,0-12.78,4.47-12.78,10.86,0,7,3.58,9.52,6.19,11.38s7.29,5,10.74,7.32a12.26,12.26,0,0,1,5.8,10.66c0,6.63-4.93,12-11,12a11,11,0,0,1-8.52-3.64l-.05,0a19.09,19.09,0,0,1-4.37-8.93l-1,6.49C271.61,51.37,278.38,53.23,283.21,53.23Z"/></g></g></svg>