<svg width="517.962" height="57" xmlns="http://www.w3.org/2000/svg">
 <defs>
  <clipPath id="clip-path">
   <rect x="0" y="0" fill="none" height="54.85" width="517.962" id="Rectangle_404"/>
  </clipPath>
 </defs>
 <g>
  <title>background</title>
  <rect fill="none" id="canvas_background" height="59" width="519.962" y="-1" x="-1"/>
 </g>
 <g>
  <title>Layer 1</title>
  <g clip-path="url(#clip-path)" id="Group_114">
   <path fill="#b47d4c" d="m95.036,53.839l7.873,0a3.166,3.166 0 0 1 -0.909,-2.211l0,-33.34l0,-0.039a3.319,3.319 0 0 1 1.056,-2.25l-7.456,0l-10.921,29.685l-11,-29.685l-7.435,0a3.268,3.268 0 0 1 1.026,2.488l0,32.943a3.3,3.3 0 0 1 -0.892,2.409l2.8,0a3.261,3.261 0 0 1 -0.916,-2.409l0,-33.779l12.965,36.084a2.4,2.4 0 0 0 1.264,1.179l13.415,-36.6l0,33.196a3.194,3.194 0 0 1 -0.87,2.329" id="Path_4697"/>
   <path fill="#b47d4c" d="m47.886,54.84l7.883,0a3.5,3.5 0 0 1 -0.933,-2.256l0,-0.073l0,-33.3l0,-0.037a3.381,3.381 0 0 1 0.909,-2.174l-7.837,0a3.161,3.161 0 0 1 0.832,2.249l0,33.262a3.279,3.279 0 0 1 -0.854,2.329" id="Path_4698"/>
   <path fill="#b47d4c" d="m3.682,54.579a2.279,2.279 0 0 1 -0.233,-0.3a2.742,2.742 0 0 1 -0.156,-2.532l3.437,-9.451l22.57,0l3.543,9.866a2.559,2.559 0 0 1 -0.339,2.2a1.887,1.887 0 0 1 -0.177,0.216l8.873,0a5.123,5.123 0 0 1 -1.613,-1.657l-0.046,-0.079l-0.03,-0.085l-17.928,-49.552a2.568,2.568 0 0 0 -1.562,-1.205l-1.4,4.005l-16.695,46.186l0,0.1l-0.077,0.186a4.7,4.7 0 0 1 -1.849,2.102l3.682,0zm14.292,-43.113l10.873,29.763l-21.747,0l10.874,-29.763z" id="Path_4699"/>
   <path fill="#b47d4c" d="m184.935,55.116l0.239,0c11.973,0 18.84,-7.129 18.84,-19.557c0,-14.421 -9.856,-19.559 -19.079,-19.559c-9.108,0 -18.841,5.138 -18.841,19.559c0,12.428 6.867,19.557 18.841,19.557m-9.029,-33.324a11.211,11.211 0 0 1 18.286,0c2.387,3.235 3.649,8 3.649,13.769c0,6.072 -1.23,10.777 -3.657,13.986a11.517,11.517 0 0 1 -18.271,0c-2.419,-3.214 -3.645,-7.919 -3.645,-13.984c0,-5.766 1.258,-10.526 3.638,-13.767" id="Path_4700"/>
   <path fill="#b47d4c" d="m227.317,17l-18.417,0a3.307,3.307 0 0 1 0.854,2.213l0,33.335a3.274,3.274 0 0 1 -0.932,2.292l8,0a3.407,3.407 0 0 1 -0.969,-2.256l0,-0.072l0,-34.444l6.366,0a10.195,10.195 0 0 1 0.08,20.389l-1.277,0a2.011,2.011 0 0 0 -1.868,1.148l5.21,0l4.886,13.142a3.221,3.221 0 0 0 3.019,2.093l4.785,0a4.527,4.527 0 0 1 -1.742,-2.022l-0.016,-0.042l-4.896,-13.627l0.937,-0.355a11.27,11.27 0 0 0 -4.024,-21.794" id="Path_4701"/>
   <path fill="#b47d4c" d="m162.469,25.649l0,-3.383a3.808,3.808 0 0 1 -2.367,1.183l-0.122,0.007l-16.495,0l0,-20.388l23.482,0.008a3.665,3.665 0 0 1 1.778,0.71l-0.352,-1.786l-32.093,0a3.157,3.157 0 0 1 0.927,2.21l0,48.335a3.088,3.088 0 0 1 -0.864,2.13l7.988,0a3.188,3.188 0 0 1 -0.87,-2.328l0,-27.82l16.577,0a3.665,3.665 0 0 1 2.407,1.121" id="Path_4702"/>
   <path fill="#b47d4c" d="m320.292,54.921c9.91,0 13.511,-7.018 13.576,-13.586l0,-22.2a3.093,3.093 0 0 1 0.863,-2.13l-2.746,0a3.148,3.148 0 0 1 0.893,2.329l0,21.932c0,6.488 -3.186,9.617 -5.863,11.1a9.223,9.223 0 0 1 -9.309,-0.044a9.771,9.771 0 0 1 -4.9,-8.422l0,-24.57a3.059,3.059 0 0 1 0.929,-2.329l-8.135,0a3.168,3.168 0 0 1 0.953,2.408l0,21.857c0,6.6 3.608,13.655 13.735,13.655" id="Path_4703"/>
   <path fill="#b47d4c" d="m359.921,54.878l0.079,0a29.332,29.332 0 0 0 11.164,-1.983l-1.104,-3.052c-1.4,1.675 -4.389,4.046 -10.059,4.046l-0.08,0a10.907,10.907 0 0 1 -9.259,-4.759c-2.262,-3.2 -3.408,-7.792 -3.408,-13.651c0,-5.694 1.254,-10.419 3.627,-13.665a11.029,11.029 0 0 1 9.04,-4.746l0.079,0c5.536,0 8.541,2.279 10.049,4.074l1.119,-3.09a28.475,28.475 0 0 0 -11.168,-2.051l-0.08,0c-9.069,0 -18.761,5.117 -18.761,19.479c0,12.328 6.838,19.4 18.761,19.4" id="Path_4704"/>
   <path fill="#b47d4c" d="m396.725,54.879l0.079,0a29.312,29.312 0 0 0 11.165,-1.985l-1.1,-3.051c-1.4,1.676 -4.39,4.046 -10.06,4.046l-0.079,0a10.91,10.91 0 0 1 -9.26,-4.759c-2.261,-3.2 -3.407,-7.792 -3.407,-13.651c0,-5.694 1.254,-10.418 3.627,-13.664a11.026,11.026 0 0 1 9.04,-4.746l0.079,0c5.536,0 8.542,2.278 10.05,4.073l1.119,-3.089a28.457,28.457 0 0 0 -11.178,-2.052l-0.079,0c-9.069,0 -18.761,5.117 -18.761,19.479c0,12.328 6.838,19.4 18.761,19.4" id="Path_4705"/>
   <path fill="#b47d4c" d="m473.356,45.158a11.284,11.284 0 0 0 -5.289,-9.569l-11.7,-7.884l0,-0.076a5.6,5.6 0 0 1 -2.155,-4.471a5.381,5.381 0 0 1 5.072,-5.229c4.72,-0.572 8.407,1.558 10.984,6.335l0.051,-4.715l-0.339,-0.185a18.128,18.128 0 0 0 -8.727,-2.35c-3.658,-0.143 -6.681,0.8 -8.745,2.719a8.294,8.294 0 0 0 -2.634,5.864l0,0.038a9.046,9.046 0 0 0 3.88,7.873l11.819,7.987a6.916,6.916 0 0 1 2.889,5.867a7.125,7.125 0 0 1 -2.2,4.863a9.149,9.149 0 0 1 -6.9,2.36l-0.026,0a12.4,12.4 0 0 1 -10.486,-7.746l-0.657,4.6a16.409,16.409 0 0 0 11.267,3.815l0.036,0a18.214,18.214 0 0 0 5.687,-0.5l0.069,-0.025l0.074,-0.014a9.959,9.959 0 0 0 8.03,-9.558" id="Path_4706"/>
   <path fill="#b47d4c" d="m504.955,45.158a11.284,11.284 0 0 0 -5.289,-9.569l-11.7,-7.884l0,-0.076a5.6,5.6 0 0 1 -2.155,-4.471a5.38,5.38 0 0 1 5.072,-5.229c4.72,-0.572 8.407,1.558 10.984,6.335l0.051,-4.715l-0.339,-0.185a18.128,18.128 0 0 0 -8.727,-2.35c-3.658,-0.143 -6.682,0.8 -8.745,2.719a8.294,8.294 0 0 0 -2.634,5.864l0,0.038a9.046,9.046 0 0 0 3.88,7.873l11.819,7.987a6.918,6.918 0 0 1 2.889,5.867a7.125,7.125 0 0 1 -2.2,4.863a9.151,9.151 0 0 1 -6.9,2.36l-0.026,0a12.4,12.4 0 0 1 -10.486,-7.746l-0.657,4.6a16.409,16.409 0 0 0 11.267,3.815l0.036,0a18.218,18.218 0 0 0 5.687,-0.5l0.069,-0.025l0.074,-0.014a9.96,9.96 0 0 0 8.03,-9.558" id="Path_4707"/>
   <path fill="#b47d4c" d="m439.385,53.761l-0.074,0.011l-17.689,0l0,-20.389l10,0.008a3.75,3.75 0 0 1 2.363,1.223l0,-3.494a3.549,3.549 0 0 1 -2.4,1.192l-0.085,0l-9.876,0l0,-14.243l16.658,0a3.707,3.707 0 0 1 1.858,0.65l-0.371,-1.722l-25.169,0a3.278,3.278 0 0 1 0.932,2.292l0,33.34a3.17,3.17 0 0 1 -0.909,2.211l26.342,0l0.8,-2.515a4.2,4.2 0 0 1 -2.379,1.436" id="Path_4708"/>
   <path fill="#b47d4c" d="m283.208,55.235a22.152,22.152 0 0 0 6.938,-0.985c5.4,-1.828 9.026,-7.3 9.031,-13.616a14.972,14.972 0 0 0 -2.682,-8.751l-0.024,-0.035a17.427,17.427 0 0 0 -4.825,-4.9c-1.742,-1.18 -3.507,-2.384 -6.431,-4.38l-6.092,-4.156c-3.677,-2.507 -5.379,-6.387 -4.337,-9.885c0.994,-3.337 4.183,-5.46 8.322,-5.54l0.02,0a11.041,11.041 0 0 1 9.532,6.077l0.049,-4.5a16.9,16.9 0 0 0 -9.581,-2.564c-7.528,0 -12.778,4.467 -12.778,10.864c0,6.973 3.578,9.516 6.19,11.371c2.752,1.911 7.294,5.021 10.744,7.321a12.27,12.27 0 0 1 5.8,10.661c0,6.633 -4.932,12.03 -10.992,12.03a10.982,10.982 0 0 1 -8.525,-3.636l-0.043,-0.043a19.011,19.011 0 0 1 -4.369,-8.931l-0.992,6.5c3.447,5.234 10.22,7.1 15.046,7.1" id="Path_4709"/>
  </g>
 </g>
</svg>