<svg xmlns="http://www.w3.org/2000/svg" viewBox="0 0 95.29 106.39"><defs><style>.cls-1{opacity:0.1;}.cls-2,.cls-3,.cls-4{fill:#fff;}.cls-2{opacity:0.8;}.cls-3{opacity:0.7;}.cls-4{opacity:0.9;}</style></defs><g id="圖層_2" data-name="圖層 2"><g id="圖層_1-2" data-name="圖層 1"><g class="cls-1"><path class="cls-2" d="M67.3,72.42a54.81,54.81,0,0,1,13.26,7.13,53.61,53.61,0,0,1,7,6L47.74,0V30.49Z"/><path class="cls-3" d="M28.19,72.41,47.74,30.49V0L7.61,85.75a55.79,55.79,0,0,1,7.32-6.2A54.5,54.5,0,0,1,28.19,72.41Z"/><polygon class="cls-2" points="59.59 64.26 35.89 64.26 40.41 54.58 55.08 54.58 59.59 64.26"/><path class="cls-4" d="M91.58,98.74A49.25,49.25,0,0,0,77.65,83.57a49.36,49.36,0,0,0-7.18-4.35A53.3,53.3,0,0,0,52.34,74v8.57h-9.2V74A52.09,52.09,0,0,0,25,79.2a49.33,49.33,0,0,0-7.2,4.37A50.24,50.24,0,0,0,0,106.39H14.38A38,38,0,0,1,25.31,93.92,39.14,39.14,0,0,1,43.14,87h0v4.73h9.2V87h0A38.3,38.3,0,0,1,81.1,106.39H95.29A53,53,0,0,0,91.58,98.74Z"/></g></g></g></svg>