<svg xmlns="http://www.w3.org/2000/svg" viewBox="0 0 425.38 65.87"><defs><style>.cls-1,.cls-3{opacity:0.7;}.cls-2,.cls-3,.cls-4,.cls-5{fill:#fff;}.cls-2{opacity:0.8;}.cls-4{opacity:0.9;}</style></defs><g id="圖層_2" data-name="圖層 2"><g id="圖層_1-2" data-name="圖層 1"><g class="cls-1"><path class="cls-2" d="M41.66,44.84a33.79,33.79,0,0,1,8.21,4.41A32.91,32.91,0,0,1,54.23,53L29.56,0V18.87Z"/><path class="cls-3" d="M17.45,44.83l12.11-26V0L4.71,53.09a34.05,34.05,0,0,1,4.53-3.84A33.85,33.85,0,0,1,17.45,44.83Z"/><polygon class="cls-2" points="36.9 39.79 22.22 39.79 25.02 33.79 34.1 33.79 36.9 39.79"/><path class="cls-4" d="M56.7,61.13a30.65,30.65,0,0,0-8.62-9.39,30.09,30.09,0,0,0-4.45-2.69A32.91,32.91,0,0,0,32.41,45.8v5.31h-5.7V45.8A32.34,32.34,0,0,0,15.49,49,30.21,30.21,0,0,0,11,51.74a31.22,31.22,0,0,0-8.72,9.39A31.54,31.54,0,0,0,0,65.87H8.9a23.56,23.56,0,0,1,6.77-7.72,24,24,0,0,1,11-4.27h0V56.8h5.7V53.88h0a23.69,23.69,0,0,1,17.8,12H59A33.48,33.48,0,0,0,56.7,61.13Z"/><path class="cls-5" d="M98.85,47.86,99,25,103,22,102.9,44.2l6.46,0,2.56,3.63Z"/><path class="cls-5" d="M115.82,47.86,115.94,25,120,22l-.09,22.24,6.46,0,2.56,3.63Z"/><path class="cls-5" d="M90.63,47.84l-2.79-6.41-9.85,0-2.91,6.39-4.25,0L83,22l11.89,25.9ZM79.51,38l6.92,0S83.15,30.13,83,29.55C82.85,30.09,79.51,38,79.51,38Z"/><path class="cls-5" d="M164.74,35.09c0-.19-.12-.72-.22-1.59s-.17-1.32-.24-1.79a12,12,0,0,1-.43,1.69,13.52,13.52,0,0,1-.7,1.72l-6.48,13.2L150.2,34.85a16.76,16.76,0,0,1-.71-1.6c-.19-.52-.37-1-.51-1.54a16,16,0,0,1-.13,1.63,15.71,15.71,0,0,1-.33,1.78l-2.65,12.2h-3.71L148,21.51l7.31,15.63c.11.24.28.66.52,1.23s.51,1.29.83,2.13a27.09,27.09,0,0,1,1.12-2.7c.13-.3.24-.52.3-.68l7.14-15.61,6,25.81h-3.74Z"/><path class="cls-5" d="M192.28,47.32l-2.81-6.38h-9.81l-2.88,6.38h-4.23l12-25.74,12,25.74Zm-11.13-9.73h6.9l-2.54-5.65c-.15-.36-.3-.77-.46-1.24s-.31-1-.47-1.56c-.14.54-.28,1-.43,1.51s-.31.9-.47,1.29Z"/><path class="cls-5" d="M237.14,47.32V22.56h11.25L251,26h-9.79v6.21h7.22L251,35.72h-9.79v8h7.22l2.57,3.6Z"/><path class="cls-5" d="M258.92,36.24V47.32h-3.77V22.56h5.62a17.94,17.94,0,0,1,3.83.32,6,6,0,0,1,2.32,1.06,5.9,5.9,0,0,1,1.78,2.32,7.61,7.61,0,0,1,.62,3.11A6.93,6.93,0,0,1,267.89,34a6.29,6.29,0,0,1-4.25,2l8.53,11.27h-4.55l-8.24-11.08Zm.26-3.13h.72c2.13,0,3.55-.25,4.25-.74a3,3,0,0,0,1.05-2.64,3.36,3.36,0,0,0-1.13-2.88Q262.95,26,259.9,26h-.72Z"/><path class="cls-5" d="M272.63,42.31l3.21-1.49a4.46,4.46,0,0,0,1.68,2.53,5.22,5.22,0,0,0,3.11.87,4,4,0,0,0,2.85-1,3.54,3.54,0,0,0,1.06-2.68q0-2.17-3.62-3.89l-.78-.37a17.47,17.47,0,0,1-5.46-3.61,6,6,0,0,1-1.36-3.95,6.32,6.32,0,0,1,2.06-4.9A7.62,7.62,0,0,1,280.76,22,9.06,9.06,0,0,1,285.35,23a5.51,5.51,0,0,1,2.55,3l-3.14,1.63A5.2,5.2,0,0,0,283.12,26a3.83,3.83,0,0,0-2-.54,3.74,3.74,0,0,0-2.58.84,2.88,2.88,0,0,0-1,2.27c0,1.49,1.4,2.87,4.2,4.16l.5.24a14.84,14.84,0,0,1,5,3.3,6,6,0,0,1,1.37,4,7.29,7.29,0,0,1-2.21,5.59,8.44,8.44,0,0,1-6,2.07,8.63,8.63,0,0,1-5.18-1.46A6.79,6.79,0,0,1,272.63,42.31Z"/><path class="cls-5" d="M197.44,42.31l3.22-1.49a4.4,4.4,0,0,0,1.67,2.53,5.22,5.22,0,0,0,3.11.87,4,4,0,0,0,2.85-1,3.5,3.5,0,0,0,1.06-2.68q0-2.17-3.62-3.89l-.78-.37a17.4,17.4,0,0,1-5.45-3.61,5.91,5.91,0,0,1-1.36-3.95,6.31,6.31,0,0,1,2.05-4.9A7.65,7.65,0,0,1,205.58,22,9,9,0,0,1,210.16,23a5.57,5.57,0,0,1,2.56,3l-3.15,1.63A5.28,5.28,0,0,0,207.94,26a3.84,3.84,0,0,0-2-.54,3.78,3.78,0,0,0-2.58.84,2.88,2.88,0,0,0-1,2.27c0,1.49,1.4,2.87,4.2,4.16l.51.24a15.05,15.05,0,0,1,5,3.3,6,6,0,0,1,1.37,4,7.3,7.3,0,0,1-2.22,5.59,8.42,8.42,0,0,1-6,2.07,8.65,8.65,0,0,1-5.18-1.46A6.79,6.79,0,0,1,197.44,42.31Z"/><path class="cls-5" d="M226.6,26V47.32h-4V26h-5.72l-2.57-3.41h17.15L234,26Z"/><path class="cls-5" d="M361.56,35a12.65,12.65,0,0,1-3.88,9.22A13.83,13.83,0,0,1,353.35,47a13.64,13.64,0,0,1-10.18,0,13.22,13.22,0,0,1-4.31-2.83A12.62,12.62,0,0,1,336,40a12.94,12.94,0,0,1,2.88-14.28,13.34,13.34,0,0,1,4.32-2.82,13.87,13.87,0,0,1,10.19,0,13.4,13.4,0,0,1,4.31,2.82A13.15,13.15,0,0,1,360.57,30,12.85,12.85,0,0,1,361.56,35Zm-4.21,0a9.62,9.62,0,0,0-.68-3.58,9.31,9.31,0,0,0-2-3,8.93,8.93,0,0,0-12.84,0,9.09,9.09,0,0,0-2,3,9.72,9.72,0,0,0-.68,3.6,9.49,9.49,0,0,0,.68,3.57,9.3,9.3,0,0,0,2,3,8.88,8.88,0,0,0,6.44,2.72,8.62,8.62,0,0,0,3.45-.7,9,9,0,0,0,2.95-2,9.26,9.26,0,0,0,2-3A9.51,9.51,0,0,0,357.35,35Z"/><path class="cls-5" d="M370.05,36.21V47.33h-3.78V22.47h5.63a17.28,17.28,0,0,1,3.85.33,5.74,5.74,0,0,1,4.12,3.39,7.64,7.64,0,0,1,.63,3.13A7,7,0,0,1,379.05,34a6.3,6.3,0,0,1-4.26,2l8.56,11.31h-4.57l-8.27-11.12Zm.26-3.14H371q3.21,0,4.26-.75a3,3,0,0,0,1.05-2.65,3.35,3.35,0,0,0-1.13-2.89c-.75-.56-2.14-.84-4.18-.84h-.73Z"/><path class="cls-5" d="M300.82,22.49h4L309.51,35c.31.83.57,1.55.77,2.17s.4,1.21.56,1.75c.39-1.31.81-2.6,1.24-3.85.05-.16.09-.27.11-.32l5-13.28L322.45,35c.25.66.48,1.31.7,2s.43,1.32.62,2c.12-.51.27-1.07.46-1.69s.44-1.33.75-2.17l4.67-12.65h4L324,48.32l-5.67-14.18c-.24-.63-.47-1.24-.67-1.82s-.39-1.14-.55-1.66c-.19.67-.38,1.29-.58,1.88s-.39,1.14-.59,1.67l-5.57,14.11Z"/><path class="cls-5" d="M404.28,47.36V22.51h5.45a36,36,0,0,1,7.47.53,10.27,10.27,0,0,1,3.8,1.79,10.39,10.39,0,0,1,3.27,4.23A14.8,14.8,0,0,1,425.38,35a14.6,14.6,0,0,1-1.11,5.87A10.56,10.56,0,0,1,421,45a10.16,10.16,0,0,1-3.71,1.79,28.31,28.31,0,0,1-6.48.53h-6.53Zm4-3.65h3.39a17.47,17.47,0,0,0,4.2-.37,6.11,6.11,0,0,0,2.44-1.26,7.45,7.45,0,0,0,2.11-3,11.38,11.38,0,0,0,.71-4.17,11.31,11.31,0,0,0-.71-4.17,7.55,7.55,0,0,0-2.11-3,6.35,6.35,0,0,0-2.52-1.25,20.23,20.23,0,0,0-4.59-.38h-2.92Z"/><path class="cls-5" d="M387.55,47.4V24.59l4-3.08V43.78h6.46l2.58,3.62Z"/></g></g></g></svg>