<svg xmlns="http://www.w3.org/2000/svg" viewBox="0 0 40 145.71"><defs><style>.cls-1{isolation:isolate;}.cls-2,.cls-3,.cls-4,.cls-5{fill:none;stroke-miterlimit:10;}.cls-2,.cls-4{stroke:#bdbebe;}.cls-3,.cls-5{stroke:#fff;}.cls-4,.cls-5{stroke-width:5px;}.cls-6{fill:#e9e9e9;}.cls-7{mix-blend-mode:multiply;}.cls-8{fill:#ddd;}.cls-9{fill:#c3c3c3;}</style></defs><g class="cls-1"><g id="圖層_2" data-name="圖層 2"><g id="圖層_1-2" data-name="圖層 1"><line class="cls-2" x1="20.2" y1="45.85" x2="20.2" y2="95.85"/><line class="cls-3" x1="20.2" y1="95.71" x2="20.2" y2="145.71"/><line class="cls-4" x1="20.2" y1="70.78" x2="20.2" y2="95.81"/><line class="cls-5" x1="20.2" y1="95.75" x2="20.2" y2="120.78"/><circle class="cls-6" cx="20" cy="20" r="20"/><g class="cls-7"><path class="cls-8" d="M14.5,16.33a15.44,15.44,0,0,1-3.71-2,15,15,0,0,1-2-1.67L20,36.59V28.06Z"/><path class="cls-6" d="M25.44,16.33,20,28.06v8.53l11.23-24a15.41,15.41,0,0,1-2,1.73A15.32,15.32,0,0,1,25.44,16.33Z"/><path class="cls-9" d="M7.71,11.11a13.78,13.78,0,0,0,3.89,4.25,14.1,14.1,0,0,0,2,1.21A14.59,14.59,0,0,0,18.69,18V14.39a10.7,10.7,0,0,1-8-5.42h-4A14.12,14.12,0,0,0,7.71,11.11Z"/><path class="cls-9" d="M26.33,16.58a13.29,13.29,0,0,0,2-1.22,13.93,13.93,0,0,0,3.94-4.25,13.27,13.27,0,0,0,1-2.14h-4a10.63,10.63,0,0,1-3.06,3.49,10.86,10.86,0,0,1-5,1.93V18A14.43,14.43,0,0,0,26.33,16.58Z"/><polygon class="cls-9" points="19.38 18.04 19.87 18.04 20.07 18.04 20.57 18.04 21.26 18.04 21.26 15.29 21.26 14.41 20.63 14.41 19.31 14.41 18.68 14.41 18.68 15.29 18.68 18.04 19.38 18.04"/></g></g></g></g></svg>