<svg xmlns="http://www.w3.org/2000/svg" width="15.498" height="15.474" viewBox="0 0 15.498 15.474">
  <g id="Group_901" data-name="Group 901" transform="translate(-303.396 -2676.823)" opacity="0.55">
    <g id="Group_899" data-name="Group 899">
      <path id="Path_828" data-name="Path 828" d="M316.459,2679.258a7.518,7.518,0,0,0-5.339-2.185,7.5,7.5,0,0,0-7.474,7.476,7.522,7.522,0,0,0,2.208,5.314,7.39,7.39,0,0,0,5.266,2.184,7.459,7.459,0,0,0,7.524-7.5A7.406,7.406,0,0,0,316.459,2679.258Zm-.437,10.169a6.917,6.917,0,0,1-9.756,0,6.9,6.9,0,0,1-2.038-4.878,6.987,6.987,0,0,1,2.038-4.879,6.9,6.9,0,0,1,9.756,9.757Z" fill="#fff" fill-rule="evenodd"/>
      <path id="Path_829" data-name="Path 829" d="M311.12,2692.3a7.662,7.662,0,0,1-5.444-2.258,7.8,7.8,0,0,1-2.28-5.49,7.765,7.765,0,0,1,13.238-5.469h0a7.692,7.692,0,0,1,2.26,5.469,7.708,7.708,0,0,1-7.774,7.748Zm0-14.974a7.25,7.25,0,0,0-7.224,7.226,7.307,7.307,0,0,0,2.136,5.139,7.28,7.28,0,0,0,10.252,0,7.294,7.294,0,0,0,2.11-5.136,7.188,7.188,0,0,0-2.11-5.112h0A7.229,7.229,0,0,0,311.12,2677.323Zm0,14.366a7,7,0,0,1-5.034-2.089,7.108,7.108,0,0,1-2.108-5.051,7.207,7.207,0,0,1,2.11-5.054,7.141,7.141,0,0,1,12.2,5.054,7.122,7.122,0,0,1-7.166,7.14Zm0-13.807a6.585,6.585,0,0,0-4.675,1.963,6.71,6.71,0,0,0-1.967,4.7,6.617,6.617,0,0,0,1.965,4.7,6.668,6.668,0,0,0,9.4,0l0,0a6.514,6.514,0,0,0,1.939-4.7,6.668,6.668,0,0,0-6.666-6.667Z" fill="#fff"/>
    </g>
    <g id="Group_900" data-name="Group 900">
      <path id="Path_830" data-name="Path 830" d="M315,2685.616l-4.392-.048v-4.659a.318.318,0,0,0-.316-.293.288.288,0,0,0-.315.293v4.949a.294.294,0,0,0,.315.317H315a.321.321,0,0,0,.315-.317C315.318,2685.713,315.149,2685.616,315,2685.616Z" fill="#fff" fill-rule="evenodd"/>
      <path id="Path_831" data-name="Path 831" d="M315,2686.425H310.3a.541.541,0,0,1-.565-.567v-4.949a.536.536,0,0,1,.565-.543.569.569,0,0,1,.565.543v4.412l4.144.045a.536.536,0,0,1,.564.492A.574.574,0,0,1,315,2686.425Zm-4.708-5.559c-.065,0-.065.021-.065.043v4.949c0,.057.009.067.065.067H315a.075.075,0,0,0,.065-.061c0,.019-.035,0-.065,0h0l-4.64-.051v-4.906C310.36,2680.9,310.321,2680.866,310.3,2680.866Z" fill="#fff"/>
    </g>
  </g>
</svg>
