<svg xmlns="http://www.w3.org/2000/svg" width="27.26" height="15.451" viewBox="0 0 27.26 15.451">
  <g id="Group_923" data-name="Group 923" transform="translate(-184.169 -2676.834)">
    <g id="Group_922" data-name="Group 922" opacity="0.55">
      <g id="Group_921" data-name="Group 921">
        <g id="Group_918" data-name="Group 918">
          <g id="Group_917" data-name="Group 917">
            <path id="Path_863" data-name="Path 863" d="M210.988,2683.277a16.872,16.872,0,0,0-5.731-4.693,16.536,16.536,0,0,0-7.247-1.748c-.07,0-.351,0-.421,0a16.532,16.532,0,0,0-7.246,1.748,16.862,16.862,0,0,0-5.731,4.693,2.083,2.083,0,0,0,0,2.567,16.873,16.873,0,0,0,5.731,4.692,16.532,16.532,0,0,0,7.246,1.748c.07,0,.351,0,.421,0a16.536,16.536,0,0,0,7.247-1.748,16.882,16.882,0,0,0,5.731-4.692A2.085,2.085,0,0,0,210.988,2683.277Zm-20.15,6.266a15.743,15.743,0,0,1-5.352-4.382.976.976,0,0,1,0-1.2,15.746,15.746,0,0,1,5.352-4.382,15.512,15.512,0,0,1,1.8-.763,7.715,7.715,0,0,0,0,11.493A15.722,15.722,0,0,1,190.838,2689.543Zm6.962,1.635a6.618,6.618,0,1,1,6.618-6.618A6.625,6.625,0,0,1,197.8,2691.178Zm12.313-6.017a15.739,15.739,0,0,1-5.351,4.382,15.582,15.582,0,0,1-1.8.762,7.715,7.715,0,0,0,0-11.492,15.65,15.65,0,0,1,7.154,5.146A.973.973,0,0,1,210.113,2685.161Z" fill="#fff"/>
          </g>
        </g>
        <g id="Group_920" data-name="Group 920">
          <g id="Group_919" data-name="Group 919">
            <path id="Path_864" data-name="Path 864" d="M197.8,2681.728a2.832,2.832,0,1,0,2.832,2.832A2.836,2.836,0,0,0,197.8,2681.728Zm0,4.555a1.723,1.723,0,1,1,1.723-1.723A1.726,1.726,0,0,1,197.8,2686.283Z" fill="#fff"/>
          </g>
        </g>
      </g>
    </g>
  </g>
</svg>
