<svg id="圖層_1" data-name="圖層 1" xmlns="http://www.w3.org/2000/svg" viewBox="0 0 65.62 65.62"><defs><style>.cls-1{fill:none;stroke:#4e4d4d;stroke-miterlimit:10;stroke-width:10px;}.cls-2{fill:#4e4d4d;}.cls-3,.cls-4,.cls-5{fill:#fff;}.cls-3{opacity:0.8;}.cls-4{opacity:0.7;}.cls-5{opacity:0.9;}.cls-6{font-size:9px;fill:#909091;font-family:DINPro, DIN Pro;}</style></defs><path class="cls-1" d="M26.31,60.16A33.84,33.84,0,0,0,60.16,26.31"/><circle class="cls-2" cx="26.31" cy="26.31" r="26.31"/><path class="cls-3" d="M33,31.16a18.55,18.55,0,0,1,4.52,2.43,18.74,18.74,0,0,1,2.4,2L26.36,6.47V16.86Z"/><path class="cls-4" d="M19.7,31.16l6.66-14.3V6.47L12.68,35.71a19.58,19.58,0,0,1,2.5-2.12A18.4,18.4,0,0,1,19.7,31.16Z"/><polygon class="cls-3" points="30.4 28.38 22.32 28.38 23.86 25.08 28.86 25.08 30.4 28.38"/><path class="cls-5" d="M41.31,40.14A16.72,16.72,0,0,0,36.56,35a17.34,17.34,0,0,0-2.45-1.48,18.21,18.21,0,0,0-6.18-1.79v2.92H24.79V31.69a17.82,17.82,0,0,0-6.17,1.78A16.5,16.5,0,0,0,16.17,35a17.12,17.12,0,0,0-4.8,5.18,16.09,16.09,0,0,0-1.28,2.6H15a13,13,0,0,1,3.73-4.25,13.28,13.28,0,0,1,6.07-2.35h0v1.61h3.13V36.14h0a13,13,0,0,1,9.81,6.6h4.83A17.84,17.84,0,0,0,41.31,40.14Z"/><text class="cls-6" transform="translate(28.32 63.19) rotate(-5.37)">S</text><text class="cls-6" transform="translate(34.53 62.47) rotate(-16.71)">T</text><text class="cls-6" transform="translate(39.53 60.96) rotate(-25.67)">A</text><text class="cls-6" transform="matrix(0.82, -0.57, 0.57, 0.82, 45.21, 58.14)">F</text><text class="cls-6" transform="translate(50.1 54.67) rotate(-43.24)">F</text><text class="cls-6" transform="translate(54.27 50.6) rotate(-49.29)"> </text><text class="cls-6" transform="translate(56.2 48.44) rotate(-55.83)">P</text><text class="cls-6" transform="translate(59.65 43.12) rotate(-62.84)">I</text><text class="cls-6" transform="translate(61.19 40.26) rotate(-70.25)">C</text><text class="cls-6" transform="translate(63.38 33.9) rotate(-81.07)">K</text></svg>