<svg xmlns="http://www.w3.org/2000/svg" viewBox="0 0 42.58 42.56"><defs><style>.cls-1{fill:#bf9160;}</style></defs><g id="圖層_2" data-name="圖層 2"><g id="圖層_1-2" data-name="圖層 1"><path class="cls-1" d="M21.17,42.51c-3.12,0-6.24.1-9.35,0C4.82,42.2.35,37.85.14,30.92q-.27-9.34,0-18.7C.3,5,4.52.54,11.75.21,18-.08,24.23-.06,30.45.21c7.36.32,11.72,4.81,12,12.15.2,6,.22,12,0,18C42.18,38,37.76,42.23,30.17,42.51c-3,.11-6,0-9,0Zm.16-38.3V4.09H13a16.57,16.57,0,0,0-1.72.12c-4,.43-6.79,2.48-7,6.38C3.93,17.71,4,24.86,4.27,32c.14,3.8,2.69,6.24,6.51,6.38,6.89.26,13.82.41,20.7,0,4.47-.25,6.69-2.79,6.86-7.22.24-6.56.23-13.15,0-19.71-.15-4.35-2.87-6.9-7.33-7.21C27.8,4,24.56,4.21,21.33,4.21Z"/><path class="cls-1" d="M21.16,32.28A10.72,10.72,0,0,1,10.33,21.2a10.67,10.67,0,0,1,10.8-10.74,10.78,10.78,0,0,1,11,10.91A10.67,10.67,0,0,1,21.16,32.28Zm-7-11a7.28,7.28,0,0,0,7,7.2,7.3,7.3,0,0,0,7.2-7,7.12,7.12,0,0,0-7-7.15A7.22,7.22,0,0,0,14.14,21.28Z"/><path class="cls-1" d="M32.59,6.53c1.15,1.56,2.44,2.57,2.3,3.3-.2,1-1.47,1.82-2.28,2.72-.85-.89-2.15-1.67-2.39-2.7C30.06,9.15,31.4,8.11,32.59,6.53Z"/></g></g></svg>