<svg xmlns="http://www.w3.org/2000/svg" width="26.771" height="26.754" viewBox="0 0 26.771 26.754">
  <g id="Group_883" data-name="Group 883" transform="translate(-1651.271 -121.073)">
    <path id="Path_824" data-name="Path 824" d="M1664.664,121.073a13.377,13.377,0,1,0,13.378,13.376,13.38,13.38,0,0,0-13.378-13.376Zm-2.377,25.6a18.165,18.165,0,0,1-2.845-5.241h4.75v5.457a15.123,15.123,0,0,1-1.905-.216Zm-10.081-11.758h5.149a21.535,21.535,0,0,0,.832,5.6h-4.393a12.141,12.141,0,0,1-1.588-5.6Zm12.919-7.445v-5.422a11.753,11.753,0,0,1,1.547.13,18.057,18.057,0,0,1,2.878,5.292Zm4.748.9a22.008,22.008,0,0,1,.873,5.611h-5.621v-5.611Zm-5.681-.9h-4.75a17.077,17.077,0,0,1,2.845-5.209,13.474,13.474,0,0,1,1.905-.213Zm0,.9v5.611h-5.936a21.582,21.582,0,0,1,.9-5.611Zm-6.837,5.611h-5.149a12.43,12.43,0,0,1,1.588-5.611h4.393a21.972,21.972,0,0,0-.832,5.611Zm.9.935h5.936v5.6h-5.036a21.372,21.372,0,0,1-.9-5.6Zm6.869,6.517h4.425a17.937,17.937,0,0,1-2.878,5.32c-.5.067-1.04.112-1.547.137Zm0-.913v-5.6h5.621a21.8,21.8,0,0,1-.873,5.6Zm6.514-5.6h5.435a12.6,12.6,0,0,1-1.577,5.682v-.078h-4.679a22.017,22.017,0,0,0,.821-5.6Zm0-.935a22.468,22.468,0,0,0-.821-5.611h4.679a12.52,12.52,0,0,1,1.577,5.611Zm3.315-6.51h-4.427a17.955,17.955,0,0,0-2.486-4.961,12.664,12.664,0,0,1,6.913,4.961Zm-19.108-1.8a11.915,11.915,0,0,1,5.072-3.049,19.179,19.179,0,0,0-2.445,4.848h-4.1a11.9,11.9,0,0,1,1.476-1.8Zm-1.476,15.761h4.1a21.011,21.011,0,0,0,2.411,4.886,12.536,12.536,0,0,1-5.038-3.059,11.784,11.784,0,0,1-1.476-1.827Zm19.073,1.827a12.421,12.421,0,0,1-5.4,3.16,18.935,18.935,0,0,0,2.486-4.987h4.427a10.416,10.416,0,0,1-1.511,1.827Z" fill="#fff" fill-rule="evenodd"/>
  </g>
</svg>
