<svg xmlns="http://www.w3.org/2000/svg" width="123.031" height="137.368" viewBox="0 0 123.031 137.368">
  <path id="Union_1" data-name="Union 1" d="M104.711,137.368a49.475,49.475,0,0,0-37.127-25V95.524a68.686,68.686,0,0,1,23.4,6.772,66.212,66.212,0,0,1,27.25,25.2,67.45,67.45,0,0,1,4.8,9.875ZM0,137.367a64.886,64.886,0,0,1,23.024-29.453,62.371,62.371,0,0,1,9.289-5.647A67.36,67.36,0,0,1,55.7,95.523v11.061H67.577v11.884H55.695v-6.1a50.449,50.449,0,0,0-23.015,8.906,49.028,49.028,0,0,0-14.109,16.094ZM61.632.025V0l.006.013,0,0V.017L113.1,110.438a68.284,68.284,0,0,0-9.1-7.72,70.334,70.334,0,0,0-17.115-9.212L61.636,39.376,36.4,93.5a70.737,70.737,0,0,0-17.125,9.211,72.732,72.732,0,0,0-9.446,8.007Z" fill="#bd9668"/>
</svg>
