<svg xmlns="http://www.w3.org/2000/svg" width="40" height="40" viewBox="0 0 40 40">
  <g id="Group_7" data-name="Group 7" transform="translate(-2171 -181)">
    <g id="圖層_2" data-name="圖層 2" transform="translate(2171 181)">
      <g id="圖層_1" data-name="圖層 1">
        <circle id="Ellipse_11" data-name="Ellipse 11" cx="20" cy="20" r="20" fill="#bf9161"/>
        <path id="Path_8" data-name="Path 8" d="M25.07,22.8a14.32,14.32,0,0,1,3.43,1.84,13.43,13.43,0,0,1,1.82,1.55L20,4.1V12Z" fill="#fff" opacity="0.8"/>
        <path id="Path_9" data-name="Path 9" d="M15,22.8,20,12V4.1L9.66,26.24a14.53,14.53,0,0,1,1.89-1.6A14,14,0,0,1,15,22.8Z" fill="#fff" opacity="0.7"/>
        <path id="Path_10" data-name="Path 10" d="M23.09,20.69H16.96l1.17-2.5h3.79Z" fill="#fff" opacity="0.8"/>
        <path id="Path_11" data-name="Path 11" d="M31.34,29.6a12.72,12.72,0,0,0-3.59-3.92,12.08,12.08,0,0,0-1.86-1.12,14,14,0,0,0-4.68-1.36v2.22H18.84V23.2a13.4,13.4,0,0,0-4.68,1.35,13.56,13.56,0,0,0-1.86,1.13A13,13,0,0,0,8.67,29.6a12.43,12.43,0,0,0-1,2h3.71a9.74,9.74,0,0,1,2.82-3.22,10.12,10.12,0,0,1,4.61-1.78h0v1.22h2.37V26.57h0a9.87,9.87,0,0,1,7.43,5H32.3a13.3,13.3,0,0,0-.96-1.97Z" fill="#fff" opacity="0.9"/>
      </g>
    </g>
    <path id="Subtraction_1" data-name="Subtraction 1" d="M20,40c-.331,0-.668-.008-1-.025V.025C19.339.008,19.675,0,20,0a20.005,20.005,0,0,1,7.785,38.428A19.875,19.875,0,0,1,20,40Z" transform="translate(2171 181)" fill="#fff" opacity="0.797"/>
  </g>
</svg>
