<svg xmlns="http://www.w3.org/2000/svg" width="28.558" height="25.551" viewBox="0 0 28.558 25.551">
  <path id="Path_825" data-name="Path 825" d="M1498,138.147a2.458,2.458,0,0,0,.939,1.664,1.925,1.925,0,0,0-.46,1.249v1.767a1.927,1.927,0,0,0,1.095,1.744,2.707,2.707,0,1,0,5.331.19h4.451a2.848,2.848,0,0,0-.024.36,2.711,2.711,0,1,0,.507-1.574h-5.416a2.7,2.7,0,0,0-4.339-.08.714.714,0,0,1-.391-.639v-1.767a.72.72,0,0,1,.72-.719h14.207a3.083,3.083,0,0,0,2.767-1.981L1521,127.773a1.719,1.719,0,0,0-1.7-2.372h-20.259a2.112,2.112,0,0,0-1.076.287l-.287-2.865a.607.607,0,0,0-.6-.547h-3.912a.607.607,0,1,0,0,1.214h3.363Zm14.038,5.482a1.493,1.493,0,1,1-1.492,1.492A1.493,1.493,0,0,1,1512.041,143.629Zm-9.814,0a1.493,1.493,0,1,1-1.492,1.492A1.493,1.493,0,0,1,1502.227,143.629Zm-3.354-8.934-.718-7.086a.91.91,0,0,1,.22-.71.883.883,0,0,1,.665-.284H1519.3a.518.518,0,0,1,.548.767l-3.6,10.588a1.883,1.883,0,0,1-1.618,1.158h-14.191a1.271,1.271,0,0,1-1.221-1.1l-.215-2.115" transform="translate(-1492.553 -122.276)" fill="#fff"/>
</svg>
