<svg xmlns="http://www.w3.org/2000/svg" viewBox="0 0 41.85 35.6"><defs><style>.cls-1{fill:#bf9160;}</style></defs><g id="圖層_2" data-name="圖層 2"><g id="圖層_1-2" data-name="圖層 1"><path class="cls-1" d="M4.3,21.79l1.45-.3L0,13.68l.72-.82,3,.15C1,9.54-.5,6,1.94,1.47c5,5.34,10.78,8.78,18.3,9.16,0-4.37.83-8.38,5.12-9.87C27.66,0,30.91-.4,32.88.65a9.52,9.52,0,0,0,8.42.6L38.93,4.88l2.92-.37c-4,2.91-3.17,7.49-4.18,11.43C33.62,31.69,17.24,39.81,2.59,33.4c-.8-.35-1.54-.85-2.27-1.26l11.23-3.27-7.84-6.1Z"/></g></g></svg>