<svg xmlns="http://www.w3.org/2000/svg" width="87.681" height="72.75" viewBox="0 0 87.681 72.75">
  <g id="圖層_2" data-name="圖層 2" transform="translate(-0.016)">
    <g id="圖層_1" data-name="圖層 1">
      <path id="Path_10" data-name="Path 10" d="M86,39.11A24.19,24.19,0,0,0,74.7,27.6a31.14,31.14,0,0,0-27.87.11c-6,3.06-10.93,8.54-12.35,15.21A19.48,19.48,0,0,0,37,57.38c3.87,6.44,10.87,10.55,18.15,11.87A33.4,33.4,0,0,0,71,68.2c3.07,1.2,5.81,3.13,8.79,4.55q-1.14-3.85-2.46-7.67a25.09,25.09,0,0,0,8.2-9A19.65,19.65,0,0,0,86,39.12ZM49.74,4.54A37,37,0,0,0,19.47,2.18,30.81,30.81,0,0,0,3.6,14.67a23.45,23.45,0,0,0-2.92,18C2.26,39.36,6.93,45,12.6,48.75Q11,53.4,9.47,58.08c3.56-1.86,7.13-3.8,10.69-5.69a39.9,39.9,0,0,0,13.37,1.89,22.59,22.59,0,0,1-.94-10.79,23,23,0,0,1,7.29-13c6.3-5.9,15.23-8.39,23.73-7.78-1.59-7.8-7.07-14.39-14-18.19ZM56.06,41a3.59,3.59,0,1,1-4.6-4.65C54.14,35.25,57.24,38.34,56.06,41Zm17.52.33a3.66,3.66,0,0,1-5.75,1,5.34,5.34,0,0,1-1.26-2.67C67,38,68.1,36.27,70,36.19c2.58-.36,4.88,2.82,3.56,5.17ZM47.45,17.78c0,3.51-4.66,5.7-7.29,3.33a4.48,4.48,0,1,1,7.28-3.37Zm-22.14.89a4.5,4.5,0,0,1-7.1,2.48c-2.78-1.95-2-6.79,1.26-7.78,3.19-1.23,6.81,2,5.85,5.3Z" fill="#c49461" fill-rule="evenodd"/>
    </g>
  </g>
</svg>
