<svg xmlns="http://www.w3.org/2000/svg" viewBox="0 0 41.06 41.39"><defs><style>.cls-1{fill:#bf9160;}</style></defs><g id="圖層_2" data-name="圖層 2"><g id="圖層_1-2" data-name="圖層 1"><path class="cls-1" d="M0,41.39c.25-1.1.35-1.75.56-2.37A21.3,21.3,0,0,0,.9,25.45C-2.39,14.48,4.67,3.24,15.48.61A20.48,20.48,0,0,1,40.39,15.36a20.09,20.09,0,0,1-15,24.92A22.5,22.5,0,0,1,14.89,40a15.28,15.28,0,0,0-9.64,0C3.74,40.56,2.14,40.84,0,41.39Zm5.21-6c3,.2,6-.24,8.44.7,7.62,2.89,16.07.77,20.71-5.77A16.94,16.94,0,0,0,12.44,5.63c-7.06,3.87-10.7,12.19-8,19.81C5.69,29,6.9,32.22,5.21,35.43Z"/><path class="cls-1" d="M25.67,22.83a8.65,8.65,0,0,1,2.18,1c1,1,2,2.06,2.93,3.11-1.42,1.15-2.85,3.27-4.24,3.25a13.46,13.46,0,0,1-7.4-2.28A42.82,42.82,0,0,1,11.52,20a6.48,6.48,0,0,1-1.14-4.53c.23-1.52,1.41-3,2.45-4.23a2.61,2.61,0,0,1,2.32.47c.77,1.71,2.14,4.11,1.51,5.3-2.39,4.49,1.72,5.28,3.61,7.2S24.18,25.4,25.67,22.83Z"/></g></g></svg>