<?xml version="1.0" encoding="UTF-8" standalone="no"?>
<!DOCTYPE svg PUBLIC "-//W3C//DTD SVG 1.1//EN" "http://www.w3.org/Graphics/SVG/1.1/DTD/svg11.dtd">
<svg version="1.1" xmlns="http://www.w3.org/2000/svg" xmlns:xlink="http://www.w3.org/1999/xlink" preserveAspectRatio="xMidYMid meet" viewBox="0 0 640 640" width="70" height="70"><defs><path d="M558.93 326.7C558.93 451.52 457.75 552.7 332.93 552.7C208.11 552.7 106.93 451.52 106.93 326.7C106.93 201.89 208.11 100.7 332.93 100.7C457.75 100.7 558.93 201.89 558.93 326.7Z" id="f2wr0RSqJs"></path><path d="M363.41 158.48L372.34 160.24L381.22 162.55L390.02 165.42L398.73 168.85L407.33 172.86L415.78 177.46L424.08 182.66L432.19 188.46L440.1 194.88L447.78 201.92L447.59 202.44L449.78 204.68L451.92 206.96L454.01 209.27L456.06 211.62L458.05 214L459.99 216.42L461.87 218.87L463.71 221.35L465.49 223.86L467.22 226.4L468.9 228.97L470.53 231.57L472.1 234.2L473.62 236.86L475.09 239.55L476.5 242.26L477.85 244.99L479.16 247.76L480.4 250.54L481.59 253.35L482.73 256.19L483.81 259.04L484.84 261.92L485.81 264.82L486.72 267.74L487.57 270.67L488.37 273.63L489.11 276.61L489.79 279.6L490.42 282.61L490.99 285.63L491.49 288.67L491.94 291.73L492.33 294.8L492.67 297.88L492.94 300.98L493.15 304.09L493.3 307.21L493.39 310.34L493.42 313.48L493.18 322.35L492.47 331.05L491.32 339.56L489.72 347.89L487.7 356.01L485.28 363.93L482.46 371.63L479.26 379.1L475.7 386.35L471.78 393.35L467.53 400.11L462.95 406.6L458.07 412.84L452.89 418.8L447.43 424.48L441.71 429.87L435.73 434.96L429.52 439.75L423.09 444.23L416.44 448.38L409.61 452.2L402.59 455.69L395.41 458.83L388.07 461.62L380.6 464.04L373 466.09L365.3 467.77L357.5 469.06L349.62 469.95L341.68 470.44L333.68 470.52L325.65 470.18L317.59 469.42L309.53 468.22L301.47 466.57L293.43 464.48L285.42 461.92L277.46 458.9L269.57 455.4L261.75 451.41L178.67 473.22L200.91 391.88L199.9 390.08L198.9 388.28L197.94 386.46L196.99 384.64L196.07 382.8L195.18 380.95L194.31 379.09L193.47 377.22L192.65 375.34L191.86 373.45L191.09 371.55L190.34 369.65L189.63 367.73L188.93 365.8L188.26 363.87L187.62 361.93L187.01 359.98L186.41 358.02L185.85 356.05L185.31 354.08L184.79 352.1L184.31 350.11L183.84 348.11L183.41 346.11L183 344.1L182.61 342.09L182.25 340.07L181.92 338.05L181.61 336.02L181.33 333.98L181.08 331.94L180.85 329.9L180.65 327.85L180.48 325.79L180.33 323.74L180.21 321.67L180.12 319.61L180.05 317.54L180.01 315.47L179.99 313.4L180.31 303.14L181.23 293.15L182.73 283.43L184.79 273.99L187.38 264.84L190.5 255.99L194.11 247.45L198.19 239.23L202.72 231.33L207.68 223.78L213.05 216.57L218.81 209.73L224.92 203.24L231.38 197.14L238.16 191.42L245.24 186.1L252.6 181.18L260.21 176.68L268.05 172.6L276.1 168.95L284.34 165.75L292.75 163L301.3 160.72L309.98 158.91L318.76 157.57L327.61 156.73L336.53 156.4L345.48 156.57L354.45 157.26L354.45 157.26L363.41 158.48ZM314.65 184.2L307.54 185.61L300.61 187.38L293.86 189.52L287.31 192L280.96 194.82L274.82 197.96L268.9 201.4L263.19 205.14L257.72 209.15L252.48 213.44L247.49 217.98L242.74 222.76L238.26 227.76L234.04 232.99L230.09 238.41L226.42 244.02L223.04 249.81L219.95 255.77L217.16 261.87L214.68 268.1L212.51 274.46L210.67 280.93L209.15 287.5L207.97 294.15L207.14 300.87L206.65 307.65L206.53 314.48L206.76 321.33L207.37 328.21L208.36 335.09L209.74 341.96L211.5 348.81L213.67 355.62L216.25 362.39L219.23 369.1L222.65 375.73L226.49 382.28L229.62 387.23L216.44 435.35L265.62 422.48L270.34 425.3L276.9 428.95L283.53 432.17L290.23 434.98L296.97 437.38L303.75 439.38L310.55 440.99L317.37 442.21L324.18 443.05L330.98 443.52L337.76 443.63L344.49 443.38L351.18 442.78L357.8 441.84L364.35 440.56L370.81 438.95L377.17 437.02L383.41 434.78L389.53 432.23L395.51 429.39L401.34 426.24L407.01 422.82L412.5 419.11L417.81 415.14L422.91 410.9L427.81 406.4L432.47 401.66L436.9 396.67L441.08 391.45L445 386L448.65 380.32L452 374.44L455.06 368.35L457.8 362.05L460.22 355.57L462.3 348.9L464.03 342.06L465.4 335.04L466.4 327.86L467.01 320.52L467.22 313.04L467.19 310.43L467.12 307.83L466.99 305.23L466.81 302.65L466.59 300.07L466.31 297.51L465.99 294.96L465.61 292.42L465.19 289.89L464.72 287.37L464.2 284.87L463.63 282.38L463.01 279.9L462.34 277.44L461.63 275L460.87 272.57L460.07 270.16L459.21 267.77L458.31 265.39L457.37 263.03L456.37 260.7L455.33 258.38L454.25 256.08L453.12 253.81L451.95 251.56L450.73 249.32L449.46 247.12L448.15 244.93L446.8 242.77L445.4 240.63L443.96 238.52L442.48 236.44L440.95 234.38L439.38 232.35L437.77 230.34L436.11 228.37L434.41 226.42L432.67 224.51L430.89 222.62L429.07 220.76L427.21 218.93L425.32 217.13L423.4 215.38L421.45 213.67L419.48 212.01L417.47 210.38L415.44 208.8L413.39 207.26L411.3 205.77L409.2 204.32L407.06 202.91L404.91 201.55L402.73 200.23L400.53 198.96L398.3 197.73L396.05 196.55L393.78 195.41L391.49 194.32L389.18 193.27L386.86 192.27L384.51 191.32L382.14 190.41L379.75 189.55L377.35 188.74L374.93 187.98L372.5 187.26L370.05 186.59L367.58 185.97L365.1 185.39L362.6 184.87L360.09 184.39L357.57 183.97L355.04 183.59L352.49 183.26L349.93 182.98L347.36 182.75L344.78 182.58L342.19 182.45L339.6 182.37L336.99 182.35L329.38 182.56L321.93 183.18L321.93 183.18L314.65 184.2ZM284.93 240.28L285.45 240.31L285.97 240.34L286.51 240.37L287.05 240.4L287.6 240.45L288.15 240.49L288.71 240.54L288.9 240.54L289.08 240.53L289.27 240.53L289.47 240.52L289.66 240.51L289.86 240.51L290.06 240.5L290.26 240.5L290.47 240.5L290.67 240.51L290.88 240.52L291.09 240.54L291.31 240.56L291.52 240.59L291.74 240.64L291.96 240.69L292.18 240.75L292.4 240.83L292.63 240.91L292.85 241.01L293.08 241.13L293.31 241.26L293.53 241.41L293.76 241.57L294 241.75L294.23 241.95L294.46 242.18L294.69 242.42L294.93 242.68L295.16 242.97L295.4 243.28L295.64 243.61L295.87 243.97L296.11 244.36L296.35 244.77L296.58 245.21L296.82 245.68L297.06 246.18L297.29 246.71L297.53 247.27L297.78 247.87L298.05 248.52L298.34 249.2L298.64 249.91L298.95 250.66L299.27 251.44L299.61 252.25L299.95 253.08L300.3 253.93L300.66 254.81L301.03 255.7L301.4 256.6L301.78 257.51L302.15 258.43L302.54 259.36L302.92 260.29L303.3 261.22L303.68 262.15L304.06 263.08L304.43 263.99L304.81 264.89L305.17 265.78L305.53 266.66L305.88 267.51L306.23 268.35L306.56 269.16L306.88 269.94L307.19 270.69L307.49 271.41L307.78 272.1L308.05 272.74L308.3 273.35L308.54 273.91L308.75 274.42L308.95 274.89L309.13 275.31L309.29 275.67L309.42 275.97L309.53 276.21L309.62 276.39L309.69 276.54L309.76 276.69L309.83 276.84L309.9 276.99L309.97 277.14L310.03 277.29L310.09 277.45L310.15 277.6L310.21 277.76L310.26 277.91L310.32 278.07L310.37 278.23L310.41 278.39L310.46 278.55L310.5 278.72L310.53 278.88L310.56 279.04L310.59 279.21L310.62 279.38L310.64 279.55L310.66 279.72L310.67 279.89L310.68 280.07L310.68 280.24L310.68 280.42L310.67 280.6L310.66 280.78L310.64 280.97L310.62 281.15L310.59 281.34L310.55 281.52L310.51 281.72L310.46 281.91L310.41 282.1L310.35 282.3L310.28 282.5L310.21 282.7L310.13 282.9L310.04 283.1L309.95 283.31L309.4 284.33L308.85 285.31L308.29 286.24L307.74 287.12L307.19 287.97L306.65 288.77L306.11 289.54L305.57 290.27L305.04 290.96L304.52 291.62L304.01 292.25L303.51 292.85L303.02 293.43L302.54 293.98L302.08 294.5L301.63 295L301.19 295.48L300.78 295.94L300.38 296.39L300 296.82L299.65 297.23L299.32 297.64L299 298.03L298.72 298.42L298.46 298.8L298.22 299.17L298.02 299.54L297.84 299.91L297.7 300.28L297.58 300.65L297.5 301.03L297.45 301.41L297.44 301.8L297.46 302.2L297.52 302.61L297.62 303.03L297.76 303.47L297.94 303.92L298.17 304.39L298.43 304.88L298.62 305.19L298.82 305.54L299.04 305.92L299.29 306.33L299.55 306.76L299.84 307.23L300.14 307.72L300.47 308.24L300.81 308.78L301.17 309.35L301.55 309.94L301.95 310.55L302.37 311.18L302.81 311.83L303.26 312.5L303.74 313.19L304.23 313.89L304.74 314.61L305.27 315.35L305.82 316.09L306.38 316.85L306.96 317.62L307.56 318.41L308.17 319.2L308.81 319.99L309.45 320.8L310.12 321.61L310.8 322.43L311.5 323.24L312.21 324.07L312.94 324.89L313.69 325.72L314.45 326.54L315.23 327.36L316.02 328.18L316.83 329L317.65 329.81L318.49 330.62L319.34 331.42L320.2 332.21L321.32 333.2L322.43 334.16L323.53 335.08L324.61 335.98L325.69 336.83L326.75 337.66L327.8 338.46L328.84 339.23L329.87 339.96L330.88 340.67L331.88 341.35L332.86 342.01L333.83 342.63L334.78 343.23L335.71 343.81L336.62 344.35L337.52 344.88L338.4 345.38L339.25 345.86L340.09 346.32L340.91 346.75L341.7 347.17L342.48 347.56L343.23 347.93L343.96 348.29L344.66 348.63L345.35 348.95L346 349.25L346.63 349.54L347.24 349.81L347.81 350.06L348.36 350.3L348.89 350.53L349.38 350.75L349.85 350.95L350.28 351.14L350.69 351.33L351.06 351.5L351.41 351.66L351.72 351.81L352.01 351.94L352.29 352.06L352.57 352.18L352.84 352.29L353.11 352.39L353.37 352.48L353.62 352.56L353.87 352.64L354.12 352.71L354.36 352.77L354.6 352.82L354.83 352.87L355.06 352.91L355.28 352.94L355.51 352.96L355.72 352.97L355.93 352.98L356.14 352.98L356.35 352.97L356.55 352.95L356.75 352.92L356.95 352.89L357.15 352.85L357.34 352.8L357.53 352.74L357.72 352.67L357.9 352.59L358.08 352.51L358.27 352.41L358.45 352.31L358.62 352.2L358.8 352.08L358.98 351.96L359.15 351.82L359.33 351.68L359.5 351.52L359.67 351.36L359.85 351.19L360.02 351.01L360.19 350.82L360.37 350.61L360.57 350.38L360.78 350.13L361.02 349.86L361.27 349.57L361.53 349.26L361.81 348.94L362.1 348.6L362.4 348.24L362.72 347.87L363.04 347.49L363.38 347.09L363.72 346.69L364.07 346.27L364.42 345.85L364.78 345.41L365.15 344.98L365.52 344.53L365.89 344.08L366.26 343.63L366.64 343.18L367.01 342.72L367.38 342.27L367.75 341.81L368.12 341.36L368.48 340.91L368.83 340.46L369.19 340.02L369.53 339.58L369.86 339.15L370.19 338.73L370.51 338.32L370.81 337.92L371.11 337.53L371.39 337.15L371.66 336.79L371.91 336.44L372.15 336.1L372.37 335.78L372.57 335.48L372.85 335.07L373.13 334.7L373.41 334.35L373.69 334.03L373.99 333.74L374.29 333.48L374.6 333.25L374.93 333.05L375.28 332.89L375.65 332.76L376.03 332.66L376.45 332.59L376.89 332.56L377.36 332.57L377.86 332.6L378.4 332.68L378.97 332.79L379.59 332.93L380.24 333.11L380.94 333.33L381.69 333.59L382.49 333.89L383.34 334.22L384.24 334.59L385.2 335L386.22 335.46L387.3 335.95L388.45 336.48L389.66 337.06L390.95 337.68L392.3 338.34L393.73 339.04L395.24 339.78L396.83 340.57L398.49 341.41L400.25 342.28L402.09 343.21L404.01 344.18L406.04 345.19L408.15 346.25L408.27 345.26L408.56 345.4L408.85 345.53L409.13 345.65L409.41 345.78L409.68 345.9L409.95 346.02L410.21 346.14L410.46 346.25L410.71 346.36L410.96 346.48L411.2 346.59L411.43 346.7L411.66 346.8L411.89 346.91L412.11 347.02L412.32 347.12L412.53 347.23L412.73 347.33L412.93 347.44L413.12 347.54L413.3 347.64L413.48 347.75L413.66 347.85L413.83 347.96L413.99 348.06L414.15 348.17L414.3 348.28L414.44 348.39L414.59 348.49L414.72 348.61L414.85 348.72L414.97 348.83L415.09 348.95L415.2 349.06L415.31 349.18L415.4 349.31L415.5 349.43L415.59 349.56L415.67 349.69L415.74 349.82L415.82 349.96L415.88 350.13L415.95 350.32L416.01 350.53L416.06 350.76L416.11 351.01L416.16 351.28L416.2 351.57L416.23 351.87L416.26 352.2L416.28 352.55L416.3 352.91L416.31 353.29L416.31 353.69L416.31 354.1L416.3 354.53L416.28 354.97L416.26 355.44L416.23 355.91L416.19 356.4L416.14 356.91L416.08 357.42L416.02 357.96L415.94 358.5L415.86 359.06L415.77 359.63L415.67 360.21L415.55 360.8L415.43 361.4L415.3 362.01L415.16 362.64L415.01 363.27L414.84 363.91L414.67 364.56L414.49 365.22L414.29 365.89L414.08 366.56L413.86 367.25L413.63 367.93L413.38 368.63L413.12 369.33L412.8 370.02L412.45 370.7L412.05 371.39L411.62 372.06L411.15 372.73L410.64 373.39L410.1 374.05L409.53 374.69L408.93 375.33L408.31 375.96L407.66 376.57L406.98 377.18L406.28 377.78L405.57 378.36L404.83 378.93L404.08 379.49L403.32 380.03L402.55 380.57L401.76 381.08L400.97 381.58L400.17 382.07L399.37 382.54L398.56 382.99L397.76 383.42L396.95 383.84L396.15 384.24L395.36 384.62L394.57 384.98L393.79 385.32L393.02 385.63L392.27 385.93L391.53 386.2L390.81 386.45L390.11 386.68L389.43 386.89L388.77 387.07L388.13 387.22L387.52 387.35L386.94 387.45L386.43 387.53L385.92 387.6L385.39 387.66L384.87 387.73L384.33 387.79L383.79 387.85L383.24 387.9L382.69 387.95L382.13 388L381.56 388.04L380.99 388.08L380.41 388.11L379.83 388.13L379.24 388.15L378.64 388.17L378.04 388.18L377.44 388.18L376.83 388.18L376.21 388.16L375.59 388.15L374.97 388.12L374.34 388.09L373.71 388.05L373.07 388L372.42 387.94L371.78 387.87L371.12 387.79L370.47 387.71L369.81 387.61L369.14 387.51L368.47 387.39L367.8 387.27L367.12 387.13L366.44 386.98L365.76 386.83L365.07 386.66L364.38 386.48L363.69 386.28L362.99 386.08L362.29 385.86L359.72 384.96L357.2 384.08L354.74 383.2L352.32 382.32L349.96 381.44L347.64 380.55L345.35 379.65L343.11 378.73L340.9 377.8L338.72 376.85L336.57 375.86L334.45 374.85L332.35 373.8L330.27 372.72L328.2 371.59L326.15 370.42L324.11 369.2L322.07 367.92L320.04 366.59L318.02 365.19L315.99 363.73L313.95 362.2L311.91 360.6L309.86 358.91L307.79 357.15L305.7 355.31L303.6 353.37L301.47 351.34L299.32 349.22L297.14 346.99L294.92 344.66L292.68 342.22L290.39 339.67L288.06 337.01L285.69 334.22L283.27 331.31L280.8 328.27L278.27 325.1L275.69 321.79L273.06 318.35L271.72 316.42L270.44 314.5L269.2 312.59L268.02 310.68L266.89 308.78L265.81 306.89L264.79 305L263.83 303.11L262.93 301.23L262.08 299.35L261.3 297.48L260.58 295.62L259.92 293.76L259.32 291.9L258.79 290.05L258.33 288.2L257.94 286.36L257.62 284.52L257.36 282.69L257.19 280.86L257.08 279.04L257.05 277.22L257.09 275.4L257.22 273.59L257.42 271.78L257.7 269.98L258.06 268.17L258.51 266.38L259.04 264.58L259.65 262.79L260.36 261.01L261.14 259.23L262.02 257.45L262.99 255.67L264.05 253.9L265.21 252.13L266.45 250.36L267.8 248.6L269.24 246.84L270.77 245.08L271.14 244.71L271.51 244.35L271.88 244.02L272.25 243.7L272.63 243.39L273.01 243.11L273.4 242.84L273.78 242.59L274.17 242.35L274.57 242.13L274.97 241.92L275.37 241.73L275.77 241.55L276.18 241.38L276.6 241.23L277.02 241.09L277.44 240.96L277.87 240.85L278.3 240.74L278.74 240.65L279.18 240.57L279.63 240.5L280.08 240.44L280.54 240.38L281 240.34L281.47 240.31L281.95 240.28L282.43 240.27L282.92 240.26L283.41 240.25L283.91 240.26L284.42 240.27L284.42 240.27L284.93 240.28Z" id="b2bbafPfVF"></path></defs><g><g><g><use xlink:href="#f2wr0RSqJs" opacity="1" fill="#000000" fill-opacity="0.9"></use><g><use xlink:href="#f2wr0RSqJs" opacity="1" fill-opacity="0" stroke="#000000" stroke-width="NaN" stroke-opacity="1"></use></g></g><g><use xlink:href="#b2bbafPfVF" opacity="1" fill="#c49460" fill-opacity="1"></use><g><use xlink:href="#b2bbafPfVF" opacity="1" fill-opacity="0" stroke="#000000" stroke-width="1" stroke-opacity="0"></use></g></g></g></g></svg>